<svg version="1.1" xmlns="http://www.w3.org/2000/svg" viewBox="0 0 250 250"><desc>Created with Snap</desc><defs></defs><g transform="matrix(0.027,0,0,0.027,7.5902,134.6603)"><rect x="-281.59999961853026" y="-1034.2400390625" width="9275.1138671875" height="1351.680029296875" fill="#143d59" style=""></rect><g><g transform="matrix(1.024,0,0,-1.024,0,0)"><g transform="matrix(1,0,0,1,0,0)"><path d="M315 0L263 0Q253 0 246 6Q240 13 240 23L240 611L48 611Q38 611 31 617Q25 624 25 634L25 676Q25 687 31 693Q38 700 48 700L530 700Q541 700 547 693Q554 687 554 676L554 634Q554 624 547 617Q541 611 530 611L339 611L339 23Q339 13 332 6Q326 0 315 0Z" fill="#ffffff" style=""></path></g><g transform="matrix(1,0,0,1,579,0)"><path d="M148 0L98 0Q88 0 81 6Q75 13 75 23L75 687Q75 697 81 703Q88 710 98 710L148 710Q159 710 165 703Q171 697 171 687L171 454Q198 488 237 509Q276 530 336 530Q401 530 446 501Q492 473 515 422Q539 372 539 305L539 23Q539 13 533 6Q527 0 516 0L466 0Q456 0 449 6Q443 13 443 23L443 300Q443 370 409 409Q375 449 309 449Q247 449 209 409Q171 370 171 300L171 23Q171 13 165 6Q159 0 148 0Z" fill="#ffffff" style=""></path></g><g transform="matrix(1,0,0,1,1188,0)"><path d="M282 -10Q178 -10 117 53Q56 117 50 227Q49 240 49 260Q49 281 50 294Q54 365 83 418Q112 472 162 501Q213 530 281 530Q357 530 408 498Q460 466 487 407Q514 348 514 269L514 252Q514 241 507 235Q501 229 491 229L145 229Q145 228 145 225Q145 222 145 220Q147 179 163 143Q179 108 209 86Q240 64 281 64Q317 64 341 75Q365 86 380 99Q395 113 400 121Q409 133 414 135Q419 138 430 138L479 138Q488 138 494 132Q501 127 500 117Q499 102 484 80Q469 59 441 38Q414 17 373 3Q333 -10 282 -10ZM145 301L145 298L419 298L419 301Q419 346 402 381Q386 416 355 436Q324 457 281 457Q238 457 207 436Q177 416 161 381Q145 346 145 301Z" fill="#ffffff" style=""></path></g><g transform="matrix(1,0,0,1,1748,0)"><path fill="#ffffff" style=""></path></g><g transform="matrix(1,0,0,1,1993,0)"><path d="M312 -10Q225 -10 166 17Q107 44 75 86Q44 129 42 176Q42 184 48 190Q55 197 64 197L115 197Q127 197 133 191Q139 185 141 177Q147 153 166 129Q185 106 220 90Q256 75 312 75Q398 75 438 105Q479 136 479 187Q479 222 457 243Q436 265 392 282Q348 299 278 319Q205 340 157 365Q109 390 85 427Q62 464 62 521Q62 575 91 617Q120 660 175 685Q230 710 307 710Q369 710 415 693Q462 677 493 649Q524 622 540 590Q556 559 557 529Q557 522 552 515Q547 509 536 509L483 509Q476 509 468 513Q461 517 457 528Q451 569 411 597Q371 625 307 625Q242 625 201 600Q161 575 161 522Q161 488 180 465Q199 443 240 426Q281 409 347 390Q427 368 478 343Q529 319 553 282Q578 246 578 189Q578 126 545 81Q512 37 452 13Q393 -10 312 -10Z" fill="#ffffff" style=""></path></g><g transform="matrix(1,0,0,1,2615,0)"><path d="M268 -10Q204 -10 159 18Q115 47 92 98Q69 149 69 215L69 497Q69 507 75 513Q82 520 92 520L142 520Q152 520 158 513Q165 507 165 497L165 220Q165 71 295 71Q357 71 394 110Q432 150 432 220L432 497Q432 507 438 513Q445 520 455 520L505 520Q515 520 521 513Q527 507 527 497L527 23Q527 13 521 6Q515 0 505 0L458 0Q448 0 441 6Q435 13 435 23L435 67Q408 32 369 11Q331 -10 268 -10Z" fill="#ffffff" style=""></path></g><g transform="matrix(1,0,0,1,3217,0)"><path d="M331 -10Q271 -10 231 11Q191 33 167 65L167 23Q167 13 160 6Q154 0 144 0L98 0Q88 0 81 6Q75 13 75 23L75 687Q75 697 81 703Q88 710 98 710L147 710Q157 710 163 703Q169 697 169 687L169 457Q194 488 233 509Q273 530 331 530Q387 530 426 510Q466 491 491 457Q517 423 530 380Q543 337 545 290Q546 274 546 260Q546 246 545 230Q543 182 530 139Q517 96 491 62Q466 29 426 9Q387 -10 331 -10ZM310 71Q362 71 391 93Q421 116 434 152Q447 189 449 231Q450 260 449 289Q447 331 434 367Q421 404 391 426Q362 449 310 449Q263 449 232 427Q201 405 185 371Q170 337 169 302Q168 286 168 263Q168 241 169 225Q171 188 185 152Q200 117 230 94Q261 71 310 71Z" fill="#ffffff" style=""></path></g><g transform="matrix(1,0,0,1,3812,0)"><path d="M268 -10Q204 -10 159 18Q115 47 92 98Q69 149 69 215L69 497Q69 507 75 513Q82 520 92 520L142 520Q152 520 158 513Q165 507 165 497L165 220Q165 71 295 71Q357 71 394 110Q432 150 432 220L432 497Q432 507 438 513Q445 520 455 520L505 520Q515 520 521 513Q527 507 527 497L527 23Q527 13 521 6Q515 0 505 0L458 0Q448 0 441 6Q435 13 435 23L435 67Q408 32 369 11Q331 -10 268 -10Z" fill="#ffffff" style=""></path></g><g transform="matrix(1,0,0,1,4414,0)"><path d="M146 0L97 0Q87 0 80 6Q74 13 74 23L74 496Q74 506 80 513Q87 520 97 520L143 520Q153 520 160 513Q167 506 167 496L167 452Q187 486 222 503Q257 520 307 520L346 520Q356 520 362 513Q369 507 369 497L369 456Q369 446 362 440Q356 434 346 434L286 434Q232 434 201 402Q170 371 170 317L170 23Q170 13 163 6Q156 0 146 0Z" fill="#ffffff" style=""></path></g><g transform="matrix(1,0,0,1,4794,0)"><path d="M331 -10Q271 -10 231 11Q191 33 167 65L167 23Q167 13 160 6Q154 0 144 0L98 0Q88 0 81 6Q75 13 75 23L75 687Q75 697 81 703Q88 710 98 710L147 710Q157 710 163 703Q169 697 169 687L169 457Q194 488 233 509Q273 530 331 530Q387 530 426 510Q466 491 491 457Q517 423 530 380Q543 337 545 290Q546 274 546 260Q546 246 545 230Q543 182 530 139Q517 96 491 62Q466 29 426 9Q387 -10 331 -10ZM310 71Q362 71 391 93Q421 116 434 152Q447 189 449 231Q450 260 449 289Q447 331 434 367Q421 404 391 426Q362 449 310 449Q263 449 232 427Q201 405 185 371Q170 337 169 302Q168 286 168 263Q168 241 169 225Q171 188 185 152Q200 117 230 94Q261 71 310 71Z" fill="#ffffff" style=""></path></g><g transform="matrix(1,0,0,1,5389,0)"><g transform="matrix(1.0902,0,0,1.0902,-40.6257,652.4349)"><g transform="matrix(1,0,0,-1,0,0)">
<g id="gSle3f5ypo4x" display="none">
</g>
<g id="gSle3f5ypo4y">
	<g>
		<g>
			<path d="M477.5,373.1c6.9-56.6-18-105.1-56.6-136.7l62-62c-43.6-38.7-101.1-62.1-164-62.1C182.1,112.4,71.2,223.2,71.2,360
				s110.9,247.6,247.6,247.6c132.4,0,240.5-103.9,247.3-234.5L477.5,373.1L477.5,373.1z M318.8,505.4
				c-80.3,0-145.3-65.1-145.3-145.4s65-145.4,145.3-145.4S464.2,279.7,464.2,360C464.3,440.3,399.1,505.4,318.8,505.4z" fill="#ffffff" style=""></path>
			<path d="M252.1,264.2c-52.8,36.8-65.8,109.7-29,162.5s109.7,65.9,162.5,29.1c52.9-36.8,65.9-109.8,29.1-162.5
				C377.9,240.5,305,227.4,252.1,264.2z M265,283.1c7.3-5.1,17.4-3.2,22.4,4c5.1,7.3,3.3,17.4-4,22.4c-7.3,5.1-17.3,3.3-22.4-4
				C255.9,298.3,257.6,288.2,265,283.1z M253.9,396.5c-7.3,5.1-17.3,3.3-22.4-4c-5.1-7.3-3.3-17.3,4-22.4s17.4-3.3,22.4,4
				C263,381.4,261.2,391.4,253.9,396.5z M326.7,452.1c-7.3,5.1-17.4,3.3-22.4-4c-5.1-7.3-3.3-17.3,4-22.4s17.3-3.3,22.4,4
				C335.8,436.9,334,447,326.7,452.1z M278.6,388.1c-15.5-22.3-10-52.8,12.2-68.3c22.2-15.5,52.8-10,68.3,12.2
				c15.5,22.2,9.9,52.8-12.3,68.2C324.6,415.7,294,410.3,278.6,388.1z M402.2,399.4c-7.3,5.1-17.3,3.2-22.4-4.1
				c-5.1-7.3-3.3-17.3,4-22.4s17.3-3.3,22.4,4C411.3,384.3,409.6,394.3,402.2,399.4z M375.6,311.8c-7.3,5.1-17.3,3.3-22.4-4
				s-3.3-17.3,4-22.4s17.4-3.3,22.4,4C384.7,296.6,382.8,306.7,375.6,311.8z" fill="#ffffff" style=""></path>
			<path d="M492,349.4c2.5-41.8-13.9-81.3-45.9-110.5l74.3-74.3c47.7,50.4,74.7,115.5,76.5,184.8H492z" fill="#ffffff" style=""></path>
		</g>
		<g>
			<path d="M624.7,380.8c-3.1-3.7-7.6-6.1-12.4-6.1c-8.7,0-15.9,7.6-17.3,17.5h34.6C629.1,387.8,627.3,383.8,624.7,380.8z" fill="#ffffff" style=""></path>
			<path d="M594.8,572.6c0,5.7,2,11,5.1,14.7s7.6,6.1,12.4,6.1c9.7,0,17.5-9.3,17.5-20.8v-3.7h-35V572.6z" fill="#ffffff" style=""></path>
			<path d="M648.8,427.4c0-3-1.9-5.6-4.5-6.7c-0.1,0-0.1,0-0.1-0.1c-0.5-0.3-0.9-0.5-1.4-0.7l-18-6.5h16.7c4,0,7.3-3.3,7.3-7.4
				c0-4-3.3-7.3-7.3-7.3h-60.7c-4.1,0-7.4,3.3-7.4,7.3c0,4.1,3.3,7.4,7.4,7.4h1l18.3,6.6h-19.3c-4.1,0-7.4,3.3-7.4,7.3
				s3.3,7.3,7.4,7.3h0.8l18.4,6.6h-19.2c-4.1,0-7.4,3.3-7.4,7.4c0,4,3.3,7.3,7.4,7.3h1l18.3,6.6h-19.3c-4.1,0-7.4,3.3-7.4,7.3
				c0,4.1,3.3,7.4,7.4,7.4h1l18.3,6.6h-19.3c-4.1,0-7.4,3.3-7.4,7.3s3.3,7.3,7.4,7.3h0.8L600,505h-19.2c-4.1,0-7.4,3.3-7.4,7.4
				c0,4,3.3,7.3,7.4,7.3h1l18.3,6.6h-19.3c-4.1,0-7.4,3.3-7.4,7.3s3.3,7.3,7.4,7.3h0.8l18.4,6.6h-19.2c-4.1,0-7.4,3.3-7.4,7.4
				c0,4,3.3,7.3,7.4,7.3h60.7c4,0,7.3-3.3,7.3-7.3c0-3.1-1.9-5.7-4.5-6.8c-0.1,0-0.1,0-0.1-0.1c-0.5-0.3-0.9-0.5-1.4-0.7l-18-6.5
				h16.7c4,0,7.3-3.3,7.3-7.3c0-3-1.9-5.6-4.5-6.7c-0.1,0-0.1,0-0.1-0.1c-0.5-0.3-0.9-0.5-1.4-0.7l-18-6.5h16.7c4,0,7.3-3.3,7.3-7.3
				c0-3.1-1.9-5.8-4.7-6.8c-0.4-0.3-0.9-0.5-1.3-0.7l-18-6.5h16.7c4,0,7.3-3.3,7.3-7.3c0-3-1.9-5.6-4.5-6.7c-0.5-0.3-1-0.6-1.5-0.8
				L625,477h16.5c4,0,7.3-3.3,7.3-7.4c0-3-1.9-5.6-4.5-6.7c-0.1,0-0.1,0-0.1-0.1c-0.5-0.3-0.9-0.5-1.4-0.7l-18-6.5h16.7
				c4,0,7.3-3.3,7.3-7.3c0-3.1-1.9-5.7-4.5-6.8c-0.1,0-0.1,0-0.1-0.1c-0.5-0.3-0.9-0.5-1.4-0.7l-18-6.5h16.7
				C645.5,434.7,648.8,431.5,648.8,427.4z" fill="#ffffff" style=""></path>
		</g>
	</g>
</g>
<g id="gSle3f5ypo58">
</g>
<desc>Created with Snap</desc><defs></defs></g></g></g><g transform="matrix(1,0,0,1,6125.7275,0)"><path d="M147 0L97 0Q87 0 80 6Q74 13 74 23L74 497Q74 507 80 513Q87 520 97 520L144 520Q154 520 160 513Q167 507 167 497L167 453Q193 487 232 508Q272 530 334 530Q399 530 444 501Q490 473 513 422Q537 372 537 305L537 23Q537 13 530 6Q524 0 514 0L464 0Q454 0 447 6Q441 13 441 23L441 300Q441 370 407 409Q373 449 307 449Q245 449 207 409Q170 370 170 300L170 23Q170 13 163 6Q157 0 147 0Z" fill="#ffffff" style=""></path></g><g transform="matrix(1,0,0,1,6731.7275,0)"><path fill="#ffffff" style=""></path></g><g transform="matrix(1,0,0,1,6976.7275,0)"><path d="M518 0L110 0Q99 0 93 6Q87 13 87 23L87 677Q87 687 93 693Q99 700 110 700L163 700Q173 700 179 693Q186 687 186 677L186 87L518 87Q529 87 535 80Q542 74 542 63L542 23Q542 13 535 6Q529 0 518 0Z" fill="#ffffff" style=""></path></g><g transform="matrix(1,0,0,1,7539.7275,0)"><path d="M287 -10Q211 -10 160 19Q109 48 82 99Q55 151 52 217Q51 234 51 260Q51 287 52 303Q55 370 82 421Q110 472 161 501Q212 530 287 530Q362 530 413 501Q464 472 491 421Q519 370 522 303Q523 287 523 260Q523 234 522 217Q519 151 492 99Q465 48 414 19Q363 -10 287 -10ZM287 67Q349 67 386 106Q423 146 426 222Q427 237 427 260Q427 283 426 298Q423 374 386 413Q349 453 287 453Q225 453 187 413Q150 374 148 298Q147 283 147 260Q147 237 148 222Q150 146 187 106Q225 67 287 67Z" fill="#ffffff" style=""></path></g><g transform="matrix(1,0,0,1,8113.7275,0)"><path d="M346 0L277 0Q221 0 186 21Q151 43 135 82Q119 122 119 176L119 440L41 440Q31 440 24 446Q18 453 18 463L18 497Q18 507 24 513Q31 520 41 520L119 520L119 687Q119 697 125 703Q132 710 142 710L189 710Q199 710 205 703Q212 697 212 687L212 520L336 520Q347 520 353 513Q359 507 359 497L359 463Q359 453 353 446Q347 440 336 440L212 440L212 183Q212 136 228 109Q244 82 285 82L346 82Q356 82 362 75Q369 69 369 59L369 23Q369 13 362 6Q356 0 346 0Z" fill="#ffffff" style=""></path></g></g></g></g></svg>